<mxfile host="Electron" modified="2024-04-28T15:11:19.604Z" agent="Mozilla/5.0 (Macintosh; Intel Mac OS X 10_15_7) AppleWebKit/537.36 (KHTML, like Gecko) draw.io/22.1.2 Chrome/114.0.5735.289 Electron/25.9.4 Safari/537.36" etag="APbluv9Mf6YJ4wkzXmmn" version="22.1.2" type="device">
  <diagram name="第 1 页" id="4285nzEdXcZ3WS_RfKeE">
    <mxGraphModel dx="984" dy="649" grid="1" gridSize="10" guides="1" tooltips="1" connect="1" arrows="1" fold="1" page="1" pageScale="1" pageWidth="827" pageHeight="1169" math="0" shadow="0">
      <root>
        <mxCell id="0" />
        <mxCell id="1" parent="0" />
        <mxCell id="KJ5dLvfOuioErofRksnI-16" style="edgeStyle=orthogonalEdgeStyle;rounded=0;orthogonalLoop=1;jettySize=auto;html=1;entryX=0;entryY=0.5;entryDx=0;entryDy=0;fontFamily=Times New Roman;fontStyle=1;fontSize=13;labelBackgroundColor=none;strokeColor=#457B9D;fontColor=default;" edge="1" parent="1" source="KJ5dLvfOuioErofRksnI-1" target="KJ5dLvfOuioErofRksnI-2">
          <mxGeometry relative="1" as="geometry" />
        </mxCell>
        <mxCell id="KJ5dLvfOuioErofRksnI-1" value="程序开始" style="rounded=0;whiteSpace=wrap;html=1;fontFamily=Times New Roman;fontStyle=1;fontSize=13;labelBackgroundColor=none;fillColor=#A8DADC;strokeColor=#457B9D;fontColor=#1D3557;" vertex="1" parent="1">
          <mxGeometry x="120" y="60" width="120" height="60" as="geometry" />
        </mxCell>
        <mxCell id="KJ5dLvfOuioErofRksnI-17" style="edgeStyle=orthogonalEdgeStyle;rounded=0;orthogonalLoop=1;jettySize=auto;html=1;fontFamily=Times New Roman;fontStyle=1;fontSize=13;labelBackgroundColor=none;strokeColor=#457B9D;fontColor=default;" edge="1" parent="1" source="KJ5dLvfOuioErofRksnI-2" target="KJ5dLvfOuioErofRksnI-4">
          <mxGeometry relative="1" as="geometry" />
        </mxCell>
        <mxCell id="KJ5dLvfOuioErofRksnI-2" value="选择端口传入命令字" style="rounded=0;whiteSpace=wrap;html=1;fontFamily=Times New Roman;fontStyle=1;fontSize=13;labelBackgroundColor=none;fillColor=#A8DADC;strokeColor=#457B9D;fontColor=#1D3557;" vertex="1" parent="1">
          <mxGeometry x="293" y="60" width="120" height="60" as="geometry" />
        </mxCell>
        <mxCell id="KJ5dLvfOuioErofRksnI-18" style="edgeStyle=orthogonalEdgeStyle;rounded=0;orthogonalLoop=1;jettySize=auto;html=1;entryX=0.5;entryY=0;entryDx=0;entryDy=0;fontFamily=Times New Roman;fontStyle=1;fontSize=13;labelBackgroundColor=none;strokeColor=#457B9D;fontColor=default;" edge="1" parent="1" source="KJ5dLvfOuioErofRksnI-4" target="KJ5dLvfOuioErofRksnI-13">
          <mxGeometry relative="1" as="geometry" />
        </mxCell>
        <mxCell id="KJ5dLvfOuioErofRksnI-4" value="防抖动初始化" style="whiteSpace=wrap;html=1;rounded=0;fontFamily=Times New Roman;fontStyle=1;fontSize=13;labelBackgroundColor=none;fillColor=#A8DADC;strokeColor=#457B9D;fontColor=#1D3557;" vertex="1" parent="1">
          <mxGeometry x="460" y="60" width="120" height="60" as="geometry" />
        </mxCell>
        <mxCell id="KJ5dLvfOuioErofRksnI-20" style="edgeStyle=orthogonalEdgeStyle;rounded=0;orthogonalLoop=1;jettySize=auto;html=1;entryX=1;entryY=0.5;entryDx=0;entryDy=0;fontFamily=Times New Roman;fontStyle=1;fontSize=13;labelBackgroundColor=none;strokeColor=#457B9D;fontColor=default;" edge="1" parent="1" source="KJ5dLvfOuioErofRksnI-6" target="KJ5dLvfOuioErofRksnI-8">
          <mxGeometry relative="1" as="geometry" />
        </mxCell>
        <mxCell id="KJ5dLvfOuioErofRksnI-6" value="LED显示8255-A" style="whiteSpace=wrap;html=1;rounded=0;fontFamily=Times New Roman;fontStyle=1;fontSize=13;labelBackgroundColor=none;fillColor=#A8DADC;strokeColor=#457B9D;fontColor=#1D3557;" vertex="1" parent="1">
          <mxGeometry x="293" y="160" width="120" height="60" as="geometry" />
        </mxCell>
        <mxCell id="KJ5dLvfOuioErofRksnI-21" style="edgeStyle=orthogonalEdgeStyle;rounded=0;orthogonalLoop=1;jettySize=auto;html=1;fontFamily=Times New Roman;fontStyle=1;fontSize=13;labelBackgroundColor=none;strokeColor=#457B9D;fontColor=default;" edge="1" parent="1" source="KJ5dLvfOuioErofRksnI-8" target="KJ5dLvfOuioErofRksnI-14">
          <mxGeometry relative="1" as="geometry">
            <Array as="points">
              <mxPoint x="170" y="280" />
            </Array>
          </mxGeometry>
        </mxCell>
        <mxCell id="KJ5dLvfOuioErofRksnI-8" value="每显示一个字母调用延时子程序" style="whiteSpace=wrap;html=1;rounded=0;fontFamily=Times New Roman;fontStyle=1;fontSize=13;labelBackgroundColor=none;fillColor=#A8DADC;strokeColor=#457B9D;fontColor=#1D3557;" vertex="1" parent="1">
          <mxGeometry x="120" y="160" width="120" height="60" as="geometry" />
        </mxCell>
        <mxCell id="KJ5dLvfOuioErofRksnI-19" style="edgeStyle=orthogonalEdgeStyle;rounded=0;orthogonalLoop=1;jettySize=auto;html=1;entryX=1;entryY=0.5;entryDx=0;entryDy=0;fontFamily=Times New Roman;fontStyle=1;fontSize=13;labelBackgroundColor=none;strokeColor=#457B9D;fontColor=default;" edge="1" parent="1" source="KJ5dLvfOuioErofRksnI-13" target="KJ5dLvfOuioErofRksnI-6">
          <mxGeometry relative="1" as="geometry" />
        </mxCell>
        <mxCell id="KJ5dLvfOuioErofRksnI-13" value="DISPLAY循环" style="rounded=1;whiteSpace=wrap;html=1;fontFamily=Times New Roman;fontStyle=1;fontSize=13;labelBackgroundColor=none;fillColor=#A8DADC;strokeColor=#457B9D;fontColor=#1D3557;" vertex="1" parent="1">
          <mxGeometry x="460" y="160" width="120" height="60" as="geometry" />
        </mxCell>
        <mxCell id="KJ5dLvfOuioErofRksnI-23" style="edgeStyle=orthogonalEdgeStyle;rounded=0;orthogonalLoop=1;jettySize=auto;html=1;entryX=0.5;entryY=1;entryDx=0;entryDy=0;fontFamily=Times New Roman;fontStyle=1;fontSize=13;labelBackgroundColor=none;strokeColor=#457B9D;fontColor=default;" edge="1" parent="1" source="KJ5dLvfOuioErofRksnI-14" target="KJ5dLvfOuioErofRksnI-13">
          <mxGeometry relative="1" as="geometry" />
        </mxCell>
        <mxCell id="KJ5dLvfOuioErofRksnI-24" value="N" style="edgeLabel;html=1;align=center;verticalAlign=middle;resizable=0;points=[];fontFamily=Times New Roman;fontStyle=1;fontSize=13;labelBackgroundColor=none;fontColor=#1D3557;" vertex="1" connectable="0" parent="KJ5dLvfOuioErofRksnI-23">
          <mxGeometry x="-0.3816" y="-2" relative="1" as="geometry">
            <mxPoint as="offset" />
          </mxGeometry>
        </mxCell>
        <mxCell id="KJ5dLvfOuioErofRksnI-28" style="edgeStyle=orthogonalEdgeStyle;rounded=0;orthogonalLoop=1;jettySize=auto;html=1;entryX=1;entryY=0.5;entryDx=0;entryDy=0;exitX=0.5;exitY=1;exitDx=0;exitDy=0;fontFamily=Times New Roman;fontStyle=1;fontSize=13;labelBackgroundColor=none;strokeColor=#457B9D;fontColor=default;" edge="1" parent="1" source="KJ5dLvfOuioErofRksnI-14" target="KJ5dLvfOuioErofRksnI-4">
          <mxGeometry relative="1" as="geometry">
            <Array as="points">
              <mxPoint x="353" y="350" />
              <mxPoint x="740" y="350" />
              <mxPoint x="740" y="90" />
            </Array>
          </mxGeometry>
        </mxCell>
        <mxCell id="KJ5dLvfOuioErofRksnI-29" value="Y" style="edgeLabel;html=1;align=center;verticalAlign=middle;resizable=0;points=[];fontFamily=Times New Roman;fontStyle=1;fontSize=13;labelBackgroundColor=none;fontColor=#1D3557;" vertex="1" connectable="0" parent="KJ5dLvfOuioErofRksnI-28">
          <mxGeometry x="-0.4397" relative="1" as="geometry">
            <mxPoint as="offset" />
          </mxGeometry>
        </mxCell>
        <mxCell id="KJ5dLvfOuioErofRksnI-14" value="CX=0？" style="rhombus;whiteSpace=wrap;html=1;fontFamily=Times New Roman;fontStyle=1;fontSize=13;labelBackgroundColor=none;fillColor=#A8DADC;strokeColor=#457B9D;fontColor=#1D3557;" vertex="1" parent="1">
          <mxGeometry x="278" y="240" width="150" height="80" as="geometry" />
        </mxCell>
      </root>
    </mxGraphModel>
  </diagram>
</mxfile>
